<svg width="30" height="30" viewBox="0 0 30 30" fill="none" xmlns="http://www.w3.org/2000/svg">
<path d="M10 15L10 10C10 7.23858 12.2386 5 15 5V5C17.7614 5 20 7.23858 20 10L20 15" stroke="white" stroke-width="2" stroke-linecap="round"/>
<path d="M4.69435 14.9178C4.83942 13.1769 4.91196 12.3065 5.48605 11.7782C6.06013 11.25 6.9336 11.25 8.68053 11.25H21.3195C23.0664 11.25 23.9399 11.25 24.514 11.7782C25.088 12.3065 25.1606 13.1769 25.3057 14.9178L26.0695 24.0839C26.154 25.0974 26.1962 25.6042 25.8991 25.9271C25.602 26.25 25.0935 26.25 24.0764 26.25H5.9236C4.90655 26.25 4.39802 26.25 4.10092 25.9271C3.80382 25.6042 3.84605 25.0974 3.93051 24.0839L4.69435 14.9178Z" stroke="white" stroke-width="2"/>
</svg>
